<svg width="42" height="44" viewBox="0 0 42 44" fill="none" xmlns="http://www.w3.org/2000/svg">
<path d="M41 35.0007V21.1308C41 19.795 40.9989 19.1267 40.8364 18.5051C40.6925 17.9542 40.4562 17.4329 40.1364 16.9618C39.7756 16.4303 39.2739 15.9895 38.2686 15.1098L26.2686 4.60981C24.402 2.9766 23.4688 2.1604 22.4185 1.8498C21.493 1.57611 20.5065 1.57611 19.5811 1.8498C18.5315 2.16017 17.5996 2.97559 15.7359 4.60634L3.73193 15.1098C2.7266 15.9895 2.2251 16.4303 1.86426 16.9618C1.54448 17.4329 1.30637 17.9542 1.16243 18.5051C1 19.1267 1 19.7949 1 21.1308V35.0007C1 37.3304 1 38.4948 1.3806 39.4136C1.88807 40.6388 2.8608 41.6133 4.08594 42.1208C5.00479 42.5014 6.16965 42.5014 8.49936 42.5014C10.8291 42.5014 11.9952 42.5014 12.9141 42.1208C14.1392 41.6133 15.1117 40.639 15.6191 39.4138C15.9997 38.495 16 37.3301 16 35.0004V32.5004C16 29.739 18.2386 27.5004 21 27.5004C23.7614 27.5004 26 29.739 26 32.5004V35.0004C26 37.3301 26 38.495 26.3806 39.4138C26.8881 40.639 27.8608 41.6133 29.0859 42.1208C30.0048 42.5014 31.1696 42.5014 33.4994 42.5014C35.8291 42.5014 36.9952 42.5014 37.9141 42.1208C39.1392 41.6133 40.1117 40.6388 40.6191 39.4136C40.9997 38.4948 41 37.3304 41 35.0007Z" stroke="#F5F5F5" stroke-width="2" stroke-linecap="round" stroke-linejoin="round"/>
</svg>
